<?xml version="1.0" encoding="UTF-8" standalone="no"?><!DOCTYPE svg PUBLIC "-//W3C//DTD SVG 1.1//EN" "http://www.w3.org/Graphics/SVG/1.1/DTD/svg11.dtd"><svg width="100%" height="100%" viewBox="0 0 1600 1600" version="1.1" xmlns="http://www.w3.org/2000/svg" xmlns:xlink="http://www.w3.org/1999/xlink" xml:space="preserve" xmlns:serif="http://www.serif.com/" style="fill-rule:evenodd;clip-rule:evenodd;stroke-linejoin:round;stroke-miterlimit:2;"><rect id="Artboard1" x="0" y="0" width="1600" height="1600" style="fill:none;"/><g><g><path d="M1518.75,1057.813c0,77.613 -63.012,140.625 -140.625,140.625l-1156.25,0c-77.613,0 -140.625,-63.012 -140.625,-140.625c0,-77.613 63.012,-140.625 140.625,-140.625l1156.25,0c77.613,0 140.625,63.012 140.625,140.625Z" style="fill:#5d3fd3;"/><path d="M1518.75,542.188c0,77.613 -63.012,140.625 -140.625,140.625l-1156.25,0c-77.613,0 -140.625,-63.012 -140.625,-140.625c0,-77.613 63.012,-140.625 140.625,-140.625l1156.25,0c77.613,0 140.625,63.012 140.625,140.625Z" style="fill:#5d3fd3;"/></g></g></svg>