<?xml version="1.0" encoding="UTF-8" standalone="no"?><!DOCTYPE svg PUBLIC "-//W3C//DTD SVG 1.1//EN" "http://www.w3.org/Graphics/SVG/1.1/DTD/svg11.dtd"><svg width="100%" height="100%" viewBox="0 0 1600 1600" version="1.1" xmlns="http://www.w3.org/2000/svg" xmlns:xlink="http://www.w3.org/1999/xlink" xml:space="preserve" xmlns:serif="http://www.serif.com/" style="fill-rule:evenodd;clip-rule:evenodd;stroke-linejoin:round;stroke-miterlimit:2;"><rect id="same_round_logo_no_margin" x="0" y="0" width="1600" height="1600" style="fill:none;"/><clipPath id="_clip1"><rect x="0" y="0" width="1600" height="1600"/></clipPath><g clip-path="url(#_clip1)"><circle cx="800" cy="800" r="800" style="fill:#8b5cf6;"/><path d="M1329.284,603.905c0,60.34 -48.988,109.328 -109.328,109.328l-839.913,0c-60.34,0 -109.328,-48.988 -109.328,-109.328c0,-60.34 48.988,-109.328 109.328,-109.328l839.913,0c60.34,0 109.328,48.988 109.328,109.328Z" style="fill:#fff;"/><path d="M1329.284,996.095c0,60.34 -48.988,109.328 -109.328,109.328l-839.913,0c-60.34,0 -109.328,-48.988 -109.328,-109.328c0,-60.34 48.988,-109.328 109.328,-109.328l839.913,0c60.34,0 109.328,48.988 109.328,109.328Z" style="fill:#fff;"/></g></svg>