<?xml version="1.0" encoding="UTF-8" standalone="no"?><!DOCTYPE svg PUBLIC "-//W3C//DTD SVG 1.1//EN" "http://www.w3.org/Graphics/SVG/1.1/DTD/svg11.dtd"><svg width="100%" height="100%" viewBox="0 0 1600 1600" version="1.1" xmlns="http://www.w3.org/2000/svg" xmlns:xlink="http://www.w3.org/1999/xlink" xml:space="preserve" xmlns:serif="http://www.serif.com/" style="fill-rule:evenodd;clip-rule:evenodd;stroke-linejoin:round;stroke-miterlimit:2;"><rect id="same_round_logo" x="0" y="0" width="1600" height="1600" style="fill:none;"/><circle cx="800" cy="800" r="720.313" style="fill:#8b5cf6;"/><path d="M1276.563,623.438c0,54.329 -44.108,98.438 -98.438,98.438l-756.25,0c-54.329,0 -98.438,-44.108 -98.438,-98.438c0,-54.329 44.108,-98.438 98.438,-98.438l756.25,0c54.329,0 98.438,44.108 98.438,98.438Z" style="fill:#fff;"/><path d="M1276.563,976.563c0,54.329 -44.108,98.438 -98.438,98.438l-756.25,0c-54.329,0 -98.438,-44.108 -98.438,-98.438c0,-54.329 44.108,-98.438 98.438,-98.438l756.25,0c54.329,0 98.438,44.108 98.438,98.438Z" style="fill:#fff;"/></svg>